<mxfile host="app.diagrams.net" modified="2022-05-02T04:42:18.888Z" agent="5.0 (Windows NT 10.0; Win64; x64) AppleWebKit/537.36 (KHTML, like Gecko) Chrome/101.0.4951.41 Safari/537.36" etag="EAfNueUnWnZvN8DlwNHs" version="17.4.6" type="github">
  <diagram id="C5RBs43oDa-KdzZeNtuy" name="Page-1">
    <mxGraphModel dx="1422" dy="706" grid="1" gridSize="10" guides="1" tooltips="1" connect="1" arrows="1" fold="1" page="1" pageScale="1" pageWidth="827" pageHeight="1169" math="0" shadow="0">
      <root>
        <mxCell id="WIyWlLk6GJQsqaUBKTNV-0" />
        <mxCell id="WIyWlLk6GJQsqaUBKTNV-1" parent="WIyWlLk6GJQsqaUBKTNV-0" />
        <mxCell id="Qd3eeIAx_LomI3crYnbU-1" value="" style="edgeStyle=orthogonalEdgeStyle;rounded=0;orthogonalLoop=1;jettySize=auto;html=1;" edge="1" parent="WIyWlLk6GJQsqaUBKTNV-1" source="WIyWlLk6GJQsqaUBKTNV-3" target="Qd3eeIAx_LomI3crYnbU-0">
          <mxGeometry relative="1" as="geometry" />
        </mxCell>
        <mxCell id="WIyWlLk6GJQsqaUBKTNV-3" value="排行榜计算" style="rounded=1;whiteSpace=wrap;html=1;fontSize=12;glass=0;strokeWidth=1;shadow=0;" parent="WIyWlLk6GJQsqaUBKTNV-1" vertex="1">
          <mxGeometry x="160" y="90" width="120" height="40" as="geometry" />
        </mxCell>
        <mxCell id="Qd3eeIAx_LomI3crYnbU-4" value="" style="edgeStyle=orthogonalEdgeStyle;rounded=0;orthogonalLoop=1;jettySize=auto;html=1;" edge="1" parent="WIyWlLk6GJQsqaUBKTNV-1" source="Qd3eeIAx_LomI3crYnbU-0" target="Qd3eeIAx_LomI3crYnbU-3">
          <mxGeometry relative="1" as="geometry" />
        </mxCell>
        <mxCell id="Qd3eeIAx_LomI3crYnbU-0" value="根据货币类型、积分增加、排行榜类型、时间计算排行榜Key" style="rounded=1;whiteSpace=wrap;html=1;fontSize=12;glass=0;strokeWidth=1;shadow=0;" vertex="1" parent="WIyWlLk6GJQsqaUBKTNV-1">
          <mxGeometry x="125" y="170" width="190" height="40" as="geometry" />
        </mxCell>
        <mxCell id="Qd3eeIAx_LomI3crYnbU-6" value="" style="edgeStyle=orthogonalEdgeStyle;rounded=0;orthogonalLoop=1;jettySize=auto;html=1;" edge="1" parent="WIyWlLk6GJQsqaUBKTNV-1" source="Qd3eeIAx_LomI3crYnbU-3" target="Qd3eeIAx_LomI3crYnbU-5">
          <mxGeometry relative="1" as="geometry" />
        </mxCell>
        <mxCell id="Qd3eeIAx_LomI3crYnbU-3" value="存入Redis有序集合" style="rounded=1;whiteSpace=wrap;html=1;fontSize=12;glass=0;strokeWidth=1;shadow=0;" vertex="1" parent="WIyWlLk6GJQsqaUBKTNV-1">
          <mxGeometry x="152.5" y="247" width="135" height="40" as="geometry" />
        </mxCell>
        <mxCell id="Qd3eeIAx_LomI3crYnbU-5" value="结束" style="rounded=1;whiteSpace=wrap;html=1;fontSize=12;glass=0;strokeWidth=1;shadow=0;" vertex="1" parent="WIyWlLk6GJQsqaUBKTNV-1">
          <mxGeometry x="152.5" y="320" width="135" height="40" as="geometry" />
        </mxCell>
        <mxCell id="Qd3eeIAx_LomI3crYnbU-7" value="" style="edgeStyle=orthogonalEdgeStyle;rounded=0;orthogonalLoop=1;jettySize=auto;html=1;" edge="1" parent="WIyWlLk6GJQsqaUBKTNV-1" source="Qd3eeIAx_LomI3crYnbU-8" target="Qd3eeIAx_LomI3crYnbU-10">
          <mxGeometry relative="1" as="geometry" />
        </mxCell>
        <mxCell id="Qd3eeIAx_LomI3crYnbU-8" value="查询排行榜" style="rounded=1;whiteSpace=wrap;html=1;fontSize=12;glass=0;strokeWidth=1;shadow=0;" vertex="1" parent="WIyWlLk6GJQsqaUBKTNV-1">
          <mxGeometry x="449" y="90" width="120" height="40" as="geometry" />
        </mxCell>
        <mxCell id="Qd3eeIAx_LomI3crYnbU-9" value="" style="edgeStyle=orthogonalEdgeStyle;rounded=0;orthogonalLoop=1;jettySize=auto;html=1;" edge="1" parent="WIyWlLk6GJQsqaUBKTNV-1" source="Qd3eeIAx_LomI3crYnbU-10" target="Qd3eeIAx_LomI3crYnbU-12">
          <mxGeometry relative="1" as="geometry" />
        </mxCell>
        <mxCell id="Qd3eeIAx_LomI3crYnbU-10" value="根据货币类型、积分增加、排行榜类型、时间计算排行榜Key" style="rounded=1;whiteSpace=wrap;html=1;fontSize=12;glass=0;strokeWidth=1;shadow=0;" vertex="1" parent="WIyWlLk6GJQsqaUBKTNV-1">
          <mxGeometry x="414" y="170" width="190" height="40" as="geometry" />
        </mxCell>
        <mxCell id="Qd3eeIAx_LomI3crYnbU-11" value="" style="edgeStyle=orthogonalEdgeStyle;rounded=0;orthogonalLoop=1;jettySize=auto;html=1;" edge="1" parent="WIyWlLk6GJQsqaUBKTNV-1" source="Qd3eeIAx_LomI3crYnbU-12" target="Qd3eeIAx_LomI3crYnbU-13">
          <mxGeometry relative="1" as="geometry" />
        </mxCell>
        <mxCell id="Qd3eeIAx_LomI3crYnbU-12" value="查询我的排行名次" style="rounded=1;whiteSpace=wrap;html=1;fontSize=12;glass=0;strokeWidth=1;shadow=0;" vertex="1" parent="WIyWlLk6GJQsqaUBKTNV-1">
          <mxGeometry x="441.5" y="247" width="135" height="40" as="geometry" />
        </mxCell>
        <mxCell id="Qd3eeIAx_LomI3crYnbU-15" style="edgeStyle=orthogonalEdgeStyle;rounded=0;orthogonalLoop=1;jettySize=auto;html=1;exitX=0.5;exitY=1;exitDx=0;exitDy=0;" edge="1" parent="WIyWlLk6GJQsqaUBKTNV-1" source="Qd3eeIAx_LomI3crYnbU-13" target="Qd3eeIAx_LomI3crYnbU-14">
          <mxGeometry relative="1" as="geometry" />
        </mxCell>
        <mxCell id="Qd3eeIAx_LomI3crYnbU-13" value="分页查询排行榜" style="rounded=1;whiteSpace=wrap;html=1;fontSize=12;glass=0;strokeWidth=1;shadow=0;" vertex="1" parent="WIyWlLk6GJQsqaUBKTNV-1">
          <mxGeometry x="441.5" y="326" width="135" height="40" as="geometry" />
        </mxCell>
        <mxCell id="Qd3eeIAx_LomI3crYnbU-14" value="结束" style="rounded=1;whiteSpace=wrap;html=1;fontSize=12;glass=0;strokeWidth=1;shadow=0;" vertex="1" parent="WIyWlLk6GJQsqaUBKTNV-1">
          <mxGeometry x="441.5" y="400" width="135" height="40" as="geometry" />
        </mxCell>
      </root>
    </mxGraphModel>
  </diagram>
</mxfile>
